<svg xmlns="http://www.w3.org/2000/svg" width="1024" height="1024" viewBox="0 0 1024 1024"><path d="M 159.000,419.500 L 157.500,419.000 L 158.500,401.000 L 163.500,380.000 L 165.000,378.500 L 170.500,379.000 L 169.500,380.000 L 168.500,395.000 L 170.000,396.500 L 172.000,396.500 L 191.000,386.500 L 195.000,385.500 L 197.500,383.000 L 197.500,377.000 L 190.000,370.500 L 162.000,367.500 L 140.000,361.500 L 128.000,355.500 L 121.000,350.500 L 112.500,342.000 L 108.500,336.000 L 102.500,321.000 L 102.500,319.000 L 104.000,318.500 L 121.000,328.500 L 153.000,340.500 L 161.000,342.500 L 168.000,342.500 L 169.500,341.000 L 169.500,339.000 L 166.000,336.500 L 142.000,328.500 L 128.000,321.500 L 110.000,308.500 L 98.500,294.000 L 95.500,288.000 L 92.500,276.000 L 92.500,266.000 L 94.000,265.500 L 116.000,283.500 L 144.000,301.500 L 161.000,310.500 L 165.000,310.500 L 165.500,306.000 L 145.000,293.500 L 129.000,281.500 L 119.500,273.000 L 107.500,259.000 L 98.500,243.000 L 94.500,231.000 L 93.500,223.000 L 92.500,222.000 L 93.000,203.500 L 131.000,239.500 L 171.000,272.500 L 193.000,288.500 L 203.500,300.000 L 210.500,313.000 L 212.500,321.000 L 213.500,334.000 L 212.500,335.000 L 210.500,356.000 L 213.500,365.000 L 217.000,368.500 L 221.000,370.500 L 233.000,370.500 L 234.000,369.500 L 245.000,368.500 L 252.000,366.500 L 259.000,366.500 L 260.000,365.500 L 275.000,364.500 L 276.000,363.500 L 285.000,363.500 L 286.000,362.500 L 325.000,361.500 L 329.500,369.000 L 335.500,384.000 L 335.000,386.500 L 334.000,385.500 L 288.000,385.500 L 287.000,386.500 L 275.000,386.500 L 274.000,387.500 L 258.000,388.500 L 257.000,389.500 L 244.000,390.500 L 243.000,391.500 L 223.000,394.500 L 190.000,404.500 L 159.000,419.500 Z M 94.500,207.000 L 93.500,207.000 L 94.500,207.000 Z M 347.000,561.500 L 345.500,561.000 L 350.500,552.000 L 352.500,545.000 L 352.500,540.000 L 365.500,528.000 L 381.500,506.000 L 389.500,490.000 L 397.500,466.000 L 399.500,449.000 L 400.500,448.000 L 400.500,419.000 L 399.500,418.000 L 399.500,412.000 L 398.500,411.000 L 396.500,397.000 L 389.500,376.000 L 381.500,360.000 L 365.500,338.000 L 347.000,320.500 L 328.000,307.500 L 316.000,301.500 L 299.000,295.500 L 291.000,293.500 L 286.000,293.500 L 285.000,292.500 L 280.000,292.500 L 279.000,291.500 L 265.000,291.500 L 264.000,290.500 L 263.000,291.500 L 262.000,290.500 L 259.000,291.500 L 244.000,291.500 L 243.000,292.500 L 237.000,292.500 L 221.000,296.500 L 212.500,287.000 L 212.500,285.000 L 215.000,283.500 L 236.000,278.500 L 258.000,277.500 L 259.000,276.500 L 263.000,277.500 L 264.000,276.500 L 265.000,277.500 L 278.000,277.500 L 279.000,278.500 L 286.000,278.500 L 287.000,279.500 L 296.000,280.500 L 323.000,289.500 L 345.000,301.500 L 364.000,316.500 L 372.500,325.000 L 385.500,341.000 L 398.500,363.000 L 398.500,365.000 L 404.500,377.000 L 409.500,393.000 L 411.500,406.000 L 412.500,407.000 L 413.500,426.000 L 414.500,427.000 L 413.500,452.000 L 412.500,453.000 L 412.500,459.000 L 411.500,460.000 L 407.500,481.000 L 402.500,495.000 L 393.500,513.000 L 380.500,532.000 L 360.000,552.500 L 347.000,561.500 Z M 95.500,280.000 L 94.500,280.000 L 95.500,280.000 Z M 255.500,289.000 L 254.500,289.000 L 255.500,289.000 Z M 231.000,360.500 L 226.500,360.000 L 226.500,352.000 L 228.500,345.000 L 228.500,319.000 L 226.500,312.000 L 228.000,310.500 L 235.000,310.500 L 236.000,309.500 L 247.000,309.500 L 248.000,310.500 L 260.000,311.500 L 268.000,313.500 L 284.000,320.500 L 302.000,333.500 L 319.500,353.000 L 319.000,354.500 L 273.000,354.500 L 272.000,355.500 L 262.000,355.500 L 261.000,356.500 L 254.000,356.500 L 253.000,357.500 L 232.000,359.500 L 231.000,360.500 Z M 102.000,318.500 L 102.000,317.500 L 102.000,318.500 Z M 263.500,354.000 L 262.500,354.000 L 263.500,354.000 Z M 142.500,360.000 L 141.500,360.000 L 142.500,360.000 Z M 325.500,364.000 L 324.500,364.000 L 325.500,364.000 Z M 271.000,590.500 L 245.000,590.500 L 244.000,589.500 L 230.000,588.500 L 210.000,583.500 L 204.000,580.500 L 199.000,579.500 L 190.000,574.500 L 188.000,574.500 L 171.000,564.500 L 153.000,550.500 L 143.500,541.000 L 130.500,525.000 L 121.500,511.000 L 109.500,484.000 L 104.500,466.000 L 103.500,456.000 L 102.500,455.000 L 102.500,448.000 L 101.500,447.000 L 101.500,418.000 L 102.500,417.000 L 103.500,403.000 L 110.500,378.000 L 117.000,365.500 L 129.000,371.500 L 129.500,373.000 L 121.500,390.000 L 116.500,409.000 L 115.500,427.000 L 114.500,428.000 L 114.500,439.000 L 115.500,440.000 L 116.500,457.000 L 120.500,474.000 L 125.500,488.000 L 133.500,504.000 L 140.500,515.000 L 152.500,530.000 L 173.000,548.500 L 187.000,557.500 L 205.000,566.500 L 219.000,571.500 L 236.000,575.500 L 243.000,575.500 L 244.000,576.500 L 272.000,576.500 L 273.000,575.500 L 286.000,574.500 L 287.500,577.000 L 288.500,586.000 L 286.000,588.500 L 272.000,589.500 L 271.000,590.500 Z M 185.500,368.000 L 183.500,368.000 L 185.500,368.000 Z M 328.500,371.000 L 327.500,371.000 L 328.500,371.000 Z M 168.500,380.000 L 167.500,380.000 L 168.500,380.000 Z M 303.000,584.500 L 301.500,584.000 L 304.500,578.000 L 305.500,570.000 L 301.500,559.000 L 295.000,550.500 L 293.500,552.000 L 291.500,559.000 L 290.000,560.500 L 288.000,560.500 L 270.500,544.000 L 263.500,532.000 L 260.500,523.000 L 259.500,510.000 L 258.000,508.500 L 255.500,510.000 L 254.500,514.000 L 252.000,538.500 L 247.000,535.500 L 239.500,526.000 L 236.500,520.000 L 234.500,512.000 L 234.500,478.000 L 235.500,477.000 L 235.500,472.000 L 234.000,471.500 L 231.500,474.000 L 226.500,495.000 L 225.500,511.000 L 224.000,514.500 L 217.500,508.000 L 212.500,499.000 L 210.500,482.000 L 212.500,475.000 L 217.500,465.000 L 221.500,460.000 L 229.500,445.000 L 231.000,444.500 L 242.000,455.500 L 257.500,464.000 L 256.500,487.000 L 258.000,487.500 L 260.500,484.000 L 260.500,481.000 L 266.500,465.000 L 267.500,459.000 L 264.000,454.500 L 256.000,450.500 L 247.500,442.000 L 242.500,433.000 L 241.500,425.000 L 240.500,424.000 L 240.500,418.000 L 243.500,406.000 L 246.000,402.500 L 254.000,400.500 L 259.000,400.500 L 260.000,399.500 L 265.000,399.500 L 266.000,398.500 L 271.000,398.500 L 272.000,397.500 L 287.000,396.500 L 288.000,395.500 L 324.000,394.500 L 328.500,399.000 L 328.500,405.000 L 324.500,410.000 L 323.500,415.000 L 331.500,436.000 L 339.500,453.000 L 340.500,459.000 L 335.000,461.500 L 331.000,460.500 L 313.000,460.500 L 309.500,459.000 L 309.500,451.000 L 308.000,449.500 L 306.000,450.500 L 285.500,472.000 L 276.500,486.000 L 271.500,499.000 L 273.000,501.500 L 285.500,485.000 L 293.000,477.500 L 304.000,470.500 L 308.000,469.500 L 321.000,469.500 L 326.000,471.500 L 332.500,480.000 L 332.000,487.500 L 328.000,485.500 L 319.000,485.500 L 304.000,492.500 L 293.500,503.000 L 289.500,513.000 L 287.500,512.000 L 288.500,514.000 L 288.500,524.000 L 290.000,524.500 L 291.500,523.000 L 292.500,518.000 L 295.500,512.000 L 301.000,505.500 L 310.000,500.500 L 322.000,498.500 L 324.500,500.000 L 324.000,501.500 L 325.500,501.000 L 327.500,507.000 L 332.500,513.000 L 337.500,526.000 L 338.500,538.000 L 337.500,539.000 L 337.500,545.000 L 334.000,552.500 L 332.500,552.000 L 333.500,551.000 L 332.500,550.000 L 332.500,542.000 L 330.500,535.000 L 328.500,531.000 L 325.000,527.500 L 322.500,528.000 L 322.500,533.000 L 324.500,538.000 L 324.500,547.000 L 325.500,548.000 L 322.500,564.000 L 317.500,573.000 L 309.000,581.500 L 303.000,584.500 Z M 283.500,400.000 L 281.500,400.000 L 283.500,400.000 Z M 301.500,431.000 L 304.500,429.000 L 308.500,418.000 L 314.500,413.000 L 314.000,411.500 L 301.000,409.500 L 286.000,402.500 L 278.000,400.500 L 269.000,403.500 L 262.500,409.000 L 263.500,414.000 L 265.000,415.500 L 275.000,412.500 L 281.000,412.500 L 286.500,415.000 L 285.000,417.500 L 275.000,422.500 L 273.500,424.000 L 274.000,425.500 L 285.000,429.500 L 296.000,428.500 L 299.000,431.500 L 301.500,431.000 Z M 116.500,406.000 L 115.500,406.000 L 116.500,406.000 Z M 173.000,509.500 L 167.500,502.000 L 163.500,494.000 L 161.500,486.000 L 161.000,477.500 L 158.500,478.000 L 155.500,485.000 L 152.000,506.500 L 148.500,503.000 L 144.500,496.000 L 143.500,488.000 L 142.500,487.000 L 142.500,480.000 L 144.500,472.000 L 161.500,438.000 L 162.500,434.000 L 168.000,427.500 L 186.000,418.500 L 211.000,409.500 L 230.000,405.500 L 230.500,414.000 L 226.500,425.000 L 217.500,443.000 L 188.500,486.000 L 187.500,486.000 L 187.500,482.000 L 188.500,481.000 L 188.500,476.000 L 191.500,463.000 L 203.500,437.000 L 204.500,432.000 L 203.000,431.500 L 198.500,436.000 L 179.500,462.000 L 174.500,474.000 L 173.500,483.000 L 172.500,484.000 L 173.000,509.500 Z M 229.500,408.000 L 228.500,408.000 L 229.500,408.000 Z M 243.500,427.000 L 242.500,427.000 L 243.500,427.000 Z M 279.500,429.000 L 278.500,429.000 L 279.500,429.000 Z M 256.500,466.000 L 255.500,466.000 L 256.500,466.000 Z M 256.500,470.000 L 256.000,468.500 L 255.500,470.000 L 256.500,470.000 Z M 408.500,472.000 L 407.500,472.000 L 408.500,472.000 Z M 237.500,473.000 L 236.500,473.000 L 237.500,473.000 Z M 191.500,475.000 L 191.000,473.500 L 190.500,475.000 L 191.500,475.000 Z M 237.500,476.000 L 236.500,476.000 L 237.500,476.000 Z M 213.500,480.000 L 212.500,480.000 L 213.500,480.000 Z M 187.000,487.500 L 187.000,486.500 L 187.000,487.500 Z M 230.000,561.500 L 215.000,557.500 L 202.000,551.500 L 183.000,539.500 L 173.500,531.000 L 173.500,529.000 L 180.000,524.500 L 188.500,515.000 L 198.000,496.500 L 206.500,515.000 L 213.500,525.000 L 224.500,537.000 L 227.500,552.000 L 230.500,559.000 L 230.000,561.500 Z M 261.500,513.000 L 260.500,513.000 L 261.500,513.000 Z M 237.500,515.000 L 236.500,515.000 L 237.500,515.000 Z M 175.500,530.000 L 174.500,530.000 L 175.500,530.000 Z M 322.500,536.000 L 321.500,536.000 L 322.500,536.000 Z M 253.000,539.500 L 253.000,538.500 L 253.000,539.500 Z M 336.500,541.000 L 335.500,541.000 L 336.500,541.000 Z M 345.000,562.500 L 345.000,561.500 L 345.000,562.500 Z M 201.500,578.000 L 200.500,578.000 L 201.500,578.000 Z M 299.000,751.500 L 284.000,750.500 L 275.000,746.500 L 266.500,739.000 L 260.500,729.000 L 256.500,714.000 L 256.500,689.000 L 260.500,674.000 L 268.500,661.000 L 277.000,653.500 L 283.000,650.500 L 290.000,648.500 L 311.000,648.500 L 323.000,652.500 L 322.500,611.000 L 325.000,609.500 L 331.000,609.500 L 332.000,608.500 L 349.000,608.500 L 350.500,610.000 L 350.500,747.000 L 348.000,749.500 L 328.000,749.500 L 326.500,748.000 L 324.500,739.000 L 323.000,738.500 L 322.000,740.500 L 314.000,746.500 L 299.000,751.500 Z M 942.000,749.500 L 914.000,749.500 L 910.500,746.000 L 904.500,736.000 L 879.000,700.500 L 877.500,703.000 L 877.500,748.000 L 876.000,749.500 L 852.000,749.500 L 850.500,748.000 L 850.500,611.000 L 852.000,609.500 L 877.000,608.500 L 878.500,610.000 L 878.000,692.500 L 879.500,692.000 L 898.500,665.000 L 912.000,648.500 L 913.000,649.500 L 914.000,648.500 L 915.000,649.500 L 916.000,648.500 L 924.000,648.500 L 925.000,649.500 L 926.000,648.500 L 927.000,649.500 L 929.000,648.500 L 930.000,649.500 L 931.000,648.500 L 934.000,649.500 L 935.000,648.500 L 939.000,648.500 L 940.500,650.000 L 910.500,689.000 L 907.500,694.000 L 907.500,696.000 L 942.500,746.000 L 943.500,748.000 L 942.000,749.500 Z M 384.000,637.500 L 374.000,636.500 L 366.500,629.000 L 365.500,625.000 L 366.500,624.000 L 365.500,623.000 L 366.500,618.000 L 371.000,612.500 L 375.000,610.500 L 387.000,610.500 L 391.000,612.500 L 395.500,619.000 L 395.500,627.000 L 393.500,632.000 L 390.000,635.500 L 384.000,637.500 Z M 194.000,751.500 L 171.000,751.500 L 170.000,750.500 L 166.000,750.500 L 154.000,746.500 L 144.000,740.500 L 134.500,731.000 L 128.500,722.000 L 123.500,710.000 L 121.500,702.000 L 121.500,697.000 L 120.500,696.000 L 120.500,669.000 L 125.500,650.000 L 131.500,638.000 L 148.000,621.500 L 158.000,616.500 L 174.000,612.500 L 198.000,613.500 L 213.000,618.500 L 221.000,623.500 L 231.500,634.000 L 235.500,640.000 L 239.500,648.000 L 243.500,662.000 L 243.500,671.000 L 244.500,672.000 L 243.500,698.000 L 242.500,699.000 L 242.500,704.000 L 240.500,712.000 L 235.500,724.000 L 227.500,735.000 L 226.000,736.500 L 224.000,735.500 L 224.500,737.000 L 217.000,743.500 L 209.000,747.500 L 194.000,751.500 Z M 571.000,749.500 L 523.000,749.500 L 520.500,747.000 L 521.000,615.500 L 580.000,615.500 L 581.000,616.500 L 586.000,616.500 L 598.000,620.500 L 603.000,623.500 L 610.500,631.000 L 613.500,636.000 L 615.500,642.000 L 615.500,657.000 L 614.500,661.000 L 612.500,665.000 L 605.000,672.500 L 595.000,676.500 L 593.500,679.000 L 603.000,681.500 L 609.000,684.500 L 617.500,693.000 L 619.500,697.000 L 620.500,706.000 L 621.500,707.000 L 620.500,719.000 L 618.500,725.000 L 614.500,732.000 L 604.000,741.500 L 589.000,747.500 L 572.000,748.500 L 571.000,749.500 Z M 188.500,729.000 L 195.000,727.500 L 202.000,723.500 L 206.500,719.000 L 211.500,710.000 L 214.500,699.000 L 214.500,690.000 L 215.500,689.000 L 214.500,665.000 L 209.500,651.000 L 201.000,641.500 L 188.000,636.500 L 176.000,636.500 L 164.000,641.500 L 158.500,647.000 L 153.500,656.000 L 151.500,662.000 L 150.500,675.000 L 149.500,676.000 L 150.500,699.000 L 153.500,709.000 L 157.500,717.000 L 162.000,722.500 L 170.000,727.500 L 177.000,729.500 L 188.500,729.000 Z M 564.500,670.000 L 575.000,669.500 L 583.000,665.500 L 587.500,659.000 L 587.500,647.000 L 583.000,640.500 L 576.000,637.500 L 549.000,637.500 L 548.500,669.000 L 564.500,670.000 Z M 798.000,751.500 L 780.000,751.500 L 779.000,750.500 L 775.000,750.500 L 768.000,748.500 L 756.000,741.500 L 746.500,730.000 L 740.500,712.000 L 740.500,703.000 L 739.500,702.000 L 740.500,687.000 L 745.500,671.000 L 752.500,661.000 L 759.000,655.500 L 768.000,650.500 L 779.000,647.500 L 789.000,647.500 L 790.000,646.500 L 793.000,647.500 L 794.000,646.500 L 795.000,647.500 L 803.000,647.500 L 811.000,649.500 L 822.000,655.500 L 831.500,667.000 L 834.500,673.000 L 838.500,688.000 L 838.500,710.000 L 837.500,711.000 L 836.500,719.000 L 830.500,732.000 L 818.000,744.500 L 810.000,748.500 L 798.000,751.500 Z M 501.000,749.500 L 478.000,749.500 L 475.500,747.000 L 475.500,682.000 L 472.500,675.000 L 466.000,670.500 L 453.000,670.500 L 446.000,673.500 L 439.500,679.000 L 439.500,747.000 L 437.000,749.500 L 414.000,749.500 L 411.500,747.000 L 411.500,736.000 L 412.500,735.000 L 412.500,665.000 L 411.500,664.000 L 411.500,651.000 L 414.000,648.500 L 418.000,649.500 L 423.000,649.500 L 424.000,648.500 L 428.000,648.500 L 429.000,649.500 L 431.000,648.500 L 433.000,649.500 L 435.000,648.500 L 437.500,653.000 L 437.500,657.000 L 440.000,659.500 L 448.000,652.500 L 457.000,648.500 L 461.000,648.500 L 462.000,647.500 L 480.000,647.500 L 490.000,651.500 L 497.500,659.000 L 502.500,672.000 L 502.500,748.000 L 501.000,749.500 Z M 689.000,751.500 L 665.000,750.500 L 653.000,745.500 L 647.000,741.500 L 639.500,733.000 L 634.500,723.000 L 632.500,716.000 L 630.500,698.000 L 631.500,697.000 L 631.500,687.000 L 634.500,676.000 L 638.500,668.000 L 645.000,659.500 L 653.000,653.500 L 665.000,648.500 L 669.000,648.500 L 670.000,647.500 L 693.000,647.500 L 701.000,649.500 L 709.000,653.500 L 721.500,666.000 L 728.500,683.000 L 728.500,688.000 L 729.500,689.000 L 729.500,708.000 L 728.500,709.000 L 728.500,715.000 L 723.500,729.000 L 719.500,735.000 L 708.000,745.500 L 699.000,749.500 L 690.000,750.500 L 689.000,751.500 Z M 392.000,749.500 L 369.000,749.500 L 367.500,748.000 L 367.500,725.000 L 368.500,724.000 L 367.500,650.000 L 371.000,648.500 L 393.000,648.500 L 394.500,650.000 L 394.500,748.000 L 392.000,749.500 Z M 468.500,649.000 L 467.500,649.000 L 468.500,649.000 Z M 475.500,649.000 L 472.500,649.000 L 475.500,649.000 Z M 767.500,653.000 L 766.500,653.000 L 767.500,653.000 Z M 278.500,655.000 L 277.500,655.000 L 278.500,655.000 Z M 654.500,655.000 L 653.500,655.000 L 654.500,655.000 Z M 240.500,656.000 L 239.500,656.000 L 240.500,656.000 Z M 589.500,659.000 L 588.500,659.000 L 589.500,659.000 Z M 674.500,667.000 L 673.500,667.000 L 674.500,667.000 Z M 310.500,729.000 L 317.000,726.500 L 323.500,721.000 L 322.500,671.000 L 314.000,667.500 L 302.000,667.500 L 295.000,670.500 L 290.500,675.000 L 286.500,682.000 L 284.500,690.000 L 284.500,707.000 L 287.500,719.000 L 295.000,727.500 L 300.000,729.500 L 310.500,729.000 Z M 682.500,730.000 L 688.000,729.500 L 692.000,727.500 L 699.500,719.000 L 701.500,712.000 L 701.500,705.000 L 702.500,704.000 L 702.500,692.000 L 699.500,679.000 L 692.000,670.500 L 687.000,668.500 L 674.000,668.500 L 666.000,672.500 L 660.500,681.000 L 659.500,690.000 L 658.500,691.000 L 658.500,706.000 L 659.500,707.000 L 660.500,716.000 L 665.500,725.000 L 673.000,729.500 L 682.500,730.000 Z M 791.500,730.000 L 797.000,729.500 L 801.000,727.500 L 806.500,722.000 L 809.500,716.000 L 810.500,704.000 L 811.500,703.000 L 810.500,685.000 L 806.500,676.000 L 801.000,670.500 L 796.000,668.500 L 783.000,668.500 L 778.000,670.500 L 770.500,679.000 L 767.500,691.000 L 767.500,706.000 L 768.500,707.000 L 769.500,716.000 L 774.500,725.000 L 782.000,729.500 L 791.500,730.000 Z M 598.500,674.000 L 597.500,674.000 L 598.500,674.000 Z M 768.500,682.000 L 767.500,682.000 L 768.500,682.000 Z M 703.500,686.000 L 702.500,686.000 L 703.500,686.000 Z M 574.500,728.000 L 585.000,724.500 L 589.500,720.000 L 592.500,712.000 L 592.500,705.000 L 589.500,698.000 L 583.000,692.500 L 576.000,690.500 L 549.000,690.500 L 548.500,727.000 L 551.000,728.500 L 574.500,728.000 Z M 742.500,706.000 L 741.500,706.000 L 742.500,706.000 Z M 703.500,710.000 L 702.500,710.000 L 703.500,710.000 Z M 743.500,714.000 L 742.500,714.000 L 743.500,714.000 Z M 768.500,715.000 L 767.500,715.000 L 768.500,715.000 Z M 834.500,719.000 L 833.500,719.000 L 834.500,719.000 Z M 185.500,731.000 L 184.500,731.000 L 185.500,731.000 Z M 393.500,747.000 L 392.500,747.000 L 393.500,747.000 Z M 414.500,747.000 L 413.500,747.000 L 414.500,747.000 Z M 523.500,747.000 L 522.500,747.000 L 523.500,747.000 Z" fill="#FFFFFF" fill-rule="evenodd"/></svg>